{
	"asset":{
		"generator":"Khronos glTF Blender I/O v4.2.70",
		"version":"2.0"
	},
	"scene":0,
	"scenes":[
		{
			"name":"Scene",
			"nodes":[
				0,
				1,
				2,
				3,
				4
			]
		}
	],
	"nodes":[
		{
			"mesh":0,
			"name":"Curve",
			"rotation":[
				0.7639590501785278,
				-0.005608735140413046,
				0.08744523674249649,
				0.6392874717712402
			],
			"scale":[
				7.5246806144714355,
				7.5246806144714355,
				7.5246806144714355
			]
		},
		{
			"mesh":1,
			"name":"Curve.001",
			"rotation":[
				0.7639590501785278,
				-0.005608735140413046,
				0.08744523674249649,
				0.6392874717712402
			],
			"scale":[
				7.5246806144714355,
				7.5246806144714355,
				7.5246806144714355
			]
		},
		{
			"mesh":2,
			"name":"Curve.002",
			"rotation":[
				0.7639590501785278,
				-0.005608735140413046,
				0.08744523674249649,
				0.6392874717712402
			],
			"scale":[
				7.5246806144714355,
				7.5246806144714355,
				7.5246806144714355
			]
		},
		{
			"mesh":3,
			"name":"Curve.003",
			"rotation":[
				0.7639590501785278,
				-0.005608735140413046,
				0.08744523674249649,
				0.6392874717712402
			],
			"scale":[
				7.5246806144714355,
				7.5246806144714355,
				7.5246806144714355
			]
		},
		{
			"mesh":4,
			"name":"Curve.004",
			"rotation":[
				0.7639590501785278,
				-0.005608735140413046,
				0.08744523674249649,
				0.6392874717712402
			],
			"scale":[
				7.5246806144714355,
				7.5246806144714355,
				7.5246806144714355
			]
		}
	],
	"materials":[
		{
			"doubleSided":true,
			"name":"SVGMat.001",
			"pbrMetallicRoughness":{
				"baseColorFactor":[
					1,
					1,
					1,
					1
				],
				"metallicFactor":0,
				"roughnessFactor":0.4000000059604645
			}
		},
		{
			"doubleSided":true,
			"name":"SVGMat.002",
			"pbrMetallicRoughness":{
				"baseColorFactor":[
					1,
					1,
					1,
					1
				],
				"metallicFactor":0,
				"roughnessFactor":0.4000000059604645
			}
		},
		{
			"doubleSided":true,
			"name":"SVGMat.003",
			"pbrMetallicRoughness":{
				"baseColorFactor":[
					1,
					1,
					1,
					1
				],
				"metallicFactor":0,
				"roughnessFactor":0.4000000059604645
			}
		},
		{
			"doubleSided":true,
			"name":"SVGMat.004",
			"pbrMetallicRoughness":{
				"baseColorFactor":[
					1,
					1,
					1,
					1
				],
				"metallicFactor":0,
				"roughnessFactor":0.4000000059604645
			}
		},
		{
			"doubleSided":true,
			"name":"SVGMat.005",
			"pbrMetallicRoughness":{
				"baseColorFactor":[
					1,
					1,
					1,
					1
				],
				"metallicFactor":0,
				"roughnessFactor":0.4000000059604645
			}
		}
	],
	"meshes":[
		{
			"name":"Curve",
			"primitives":[
				{
					"attributes":{
						"POSITION":0,
						"NORMAL":1,
						"TEXCOORD_0":2
					},
					"indices":3,
					"material":0
				}
			]
		},
		{
			"name":"Curve.001",
			"primitives":[
				{
					"attributes":{
						"POSITION":4,
						"NORMAL":5,
						"TEXCOORD_0":6
					},
					"indices":7,
					"material":1
				}
			]
		},
		{
			"name":"Curve.002",
			"primitives":[
				{
					"attributes":{
						"POSITION":8,
						"NORMAL":9,
						"TEXCOORD_0":10
					},
					"indices":11,
					"material":2
				}
			]
		},
		{
			"name":"Curve.003",
			"primitives":[
				{
					"attributes":{
						"POSITION":12,
						"NORMAL":13,
						"TEXCOORD_0":14
					},
					"indices":15,
					"material":3
				}
			]
		},
		{
			"name":"Curve.004",
			"primitives":[
				{
					"attributes":{
						"POSITION":16,
						"NORMAL":17,
						"TEXCOORD_0":18
					},
					"indices":19,
					"material":4
				}
			]
		}
	],
	"accessors":[
		{
			"bufferView":0,
			"componentType":5126,
			"count":14504,
			"max":[
				0.10191818326711655,
				0.019999999552965164,
				0.04687522351741791
			],
			"min":[
				-7.519498467445374e-05,
				-0.019999999552965164,
				0.015255831182003021
			],
			"type":"VEC3"
		},
		{
			"bufferView":1,
			"componentType":5126,
			"count":14504,
			"type":"VEC3"
		},
		{
			"bufferView":2,
			"componentType":5126,
			"count":14504,
			"type":"VEC2"
		},
		{
			"bufferView":3,
			"componentType":5123,
			"count":42984,
			"type":"SCALAR"
		},
		{
			"bufferView":4,
			"componentType":5126,
			"count":1320,
			"max":[
				0.09567528963088989,
				0.019999999552965164,
				0.013826251029968262
			],
			"min":[
				0.08184611797332764,
				-0.019999999552965164,
				0.0002821683883666992
			],
			"type":"VEC3"
		},
		{
			"bufferView":5,
			"componentType":5126,
			"count":1320,
			"type":"VEC3"
		},
		{
			"bufferView":6,
			"componentType":5126,
			"count":1320,
			"type":"VEC2"
		},
		{
			"bufferView":7,
			"componentType":5123,
			"count":3876,
			"type":"SCALAR"
		},
		{
			"bufferView":8,
			"componentType":5126,
			"count":1211,
			"max":[
				0.09313523769378662,
				0.019999999552965164,
				0.020880460739135742
			],
			"min":[
				0.08184611797332764,
				-0.019999999552965164,
				0.010158061981201172
			],
			"type":"VEC3"
		},
		{
			"bufferView":9,
			"componentType":5126,
			"count":1211,
			"type":"VEC3"
		},
		{
			"bufferView":10,
			"componentType":5126,
			"count":1211,
			"type":"VEC2"
		},
		{
			"bufferView":11,
			"componentType":5123,
			"count":3588,
			"type":"SCALAR"
		},
		{
			"bufferView":12,
			"componentType":5126,
			"count":1066,
			"max":[
				0.10131984949111938,
				0.019999999552965164,
				0.014108419418334961
			],
			"min":[
				0.0934174656867981,
				-0.019999999552965164,
				0.006207704544067383
			],
			"type":"VEC3"
		},
		{
			"bufferView":13,
			"componentType":5126,
			"count":1066,
			"type":"VEC3"
		},
		{
			"bufferView":14,
			"componentType":5126,
			"count":1066,
			"type":"VEC2"
		},
		{
			"bufferView":15,
			"componentType":5123,
			"count":3156,
			"type":"SCALAR"
		},
		{
			"bufferView":16,
			"componentType":5126,
			"count":290,
			"max":[
				0.07733047008514404,
				0.01999998465180397,
				0.03357803821563721
			],
			"min":[
				0.07333429157733917,
				-0.01999998465180397,
				0.029440036043524742
			],
			"type":"VEC3"
		},
		{
			"bufferView":17,
			"componentType":5126,
			"count":290,
			"type":"VEC3"
		},
		{
			"bufferView":18,
			"componentType":5126,
			"count":290,
			"type":"VEC2"
		},
		{
			"bufferView":19,
			"componentType":5123,
			"count":852,
			"type":"SCALAR"
		}
	],
	"bufferViews":[
		{
			"buffer":0,
			"byteLength":174048,
			"byteOffset":0,
			"target":34962
		},
		{
			"buffer":0,
			"byteLength":174048,
			"byteOffset":174048,
			"target":34962
		},
		{
			"buffer":0,
			"byteLength":116032,
			"byteOffset":348096,
			"target":34962
		},
		{
			"buffer":0,
			"byteLength":85968,
			"byteOffset":464128,
			"target":34963
		},
		{
			"buffer":0,
			"byteLength":15840,
			"byteOffset":550096,
			"target":34962
		},
		{
			"buffer":0,
			"byteLength":15840,
			"byteOffset":565936,
			"target":34962
		},
		{
			"buffer":0,
			"byteLength":10560,
			"byteOffset":581776,
			"target":34962
		},
		{
			"buffer":0,
			"byteLength":7752,
			"byteOffset":592336,
			"target":34963
		},
		{
			"buffer":0,
			"byteLength":14532,
			"byteOffset":600088,
			"target":34962
		},
		{
			"buffer":0,
			"byteLength":14532,
			"byteOffset":614620,
			"target":34962
		},
		{
			"buffer":0,
			"byteLength":9688,
			"byteOffset":629152,
			"target":34962
		},
		{
			"buffer":0,
			"byteLength":7176,
			"byteOffset":638840,
			"target":34963
		},
		{
			"buffer":0,
			"byteLength":12792,
			"byteOffset":646016,
			"target":34962
		},
		{
			"buffer":0,
			"byteLength":12792,
			"byteOffset":658808,
			"target":34962
		},
		{
			"buffer":0,
			"byteLength":8528,
			"byteOffset":671600,
			"target":34962
		},
		{
			"buffer":0,
			"byteLength":6312,
			"byteOffset":680128,
			"target":34963
		},
		{
			"buffer":0,
			"byteLength":3480,
			"byteOffset":686440,
			"target":34962
		},
		{
			"buffer":0,
			"byteLength":3480,
			"byteOffset":689920,
			"target":34962
		},
		{
			"buffer":0,
			"byteLength":2320,
			"byteOffset":693400,
			"target":34962
		},
		{
			"buffer":0,
			"byteLength":1704,
			"byteOffset":695720,
			"target":34963
		}
	],
	"buffers":[
		{
			"byteLength":697424,
			"uri":"liminal_3d.bin"
		}
	]
}
