<?xml version="1.0" encoding="UTF-8"?>
<svg version="1.1" xmlns="http://www.w3.org/2000/svg" width="360" height="166">
<path d="M0 0 C4.82865836 1.31891354 6.41743718 3.80942554 9.10546875 7.87109375 C9.58024658 8.55244385 10.05502441 9.23379395 10.54418945 9.93579102 C13.807154 14.72052739 16.41078908 19.48553463 18.41796875 24.93359375 C31.43549564 25.97260976 44.38690447 26.06999836 57.43945312 26.04711914 C59.71764627 26.04683651 61.9958395 26.04699649 64.27403259 26.04756165 C70.41132724 26.04784664 76.54860204 26.04199826 82.68589211 26.03498769 C89.11737592 26.02870437 95.54886027 26.02814643 101.98034668 26.02696228 C112.75985088 26.02421486 123.53934701 26.01798359 134.31884766 26.0090332 C145.41357386 25.99983075 156.50829809 25.99276383 167.60302734 25.98852539 C168.28881975 25.98826267 168.97461215 25.98799994 169.68118614 25.98772926 C173.12217644 25.98642406 176.56316675 25.98516039 180.00415707 25.98391736 C208.47543249 25.97357871 236.94670034 25.95591509 265.41796875 25.93359375 C265.8676577 25.01061996 265.8676577 25.01061996 266.32643127 24.06900024 C268.49109263 19.8342103 271.53783469 16.12621725 274.35546875 12.30859375 C274.98904297 11.4371875 275.62261719 10.56578125 276.27539062 9.66796875 C276.88833984 8.83523437 277.50128906 8.0025 278.1328125 7.14453125 C278.690896 6.38446777 279.24897949 5.6244043 279.82397461 4.84130859 C282.03564204 2.19435358 283.84627429 1.04793264 287.23046875 0.37109375 C292.08260959 1.2273539 293.67850563 4.02593064 296.41796875 7.93359375 C297.27068359 9.13242187 297.27068359 9.13242187 298.140625 10.35546875 C311.10291985 29.61373538 311.10291985 29.61373538 310.23046875 39.57421875 C308.38105582 44.94462938 304.60635589 49.32404838 301.13525391 53.74072266 C299.18750666 56.22788015 297.27609741 58.74073059 295.3671875 61.2578125 C291.97763987 65.72698231 288.57048169 70.1820542 285.14599609 74.62451172 C283.6183719 76.6658044 282.21268747 78.7459784 280.8125 80.875 C278.0855219 84.3582363 276.62493363 85.59435234 272.41796875 86.93359375 C268.67742318 87.28864848 264.98419717 87.26215445 261.23046875 87.18359375 C259.73483398 87.17585938 259.73483398 87.17585938 258.20898438 87.16796875 C250.88400751 87.08894 250.88400751 87.08894 247.41796875 85.93359375 C245.93296875 86.42859375 245.93296875 86.42859375 244.41796875 86.93359375 C242.73644715 87.02611051 241.05149578 87.06150788 239.36743164 87.06298828 C238.3394899 87.06614044 237.31154816 87.0692926 236.25245667 87.07254028 C234.58834999 87.06950394 234.58834999 87.06950394 232.890625 87.06640625 C231.1799308 87.06784134 231.1799308 87.06784134 229.43467712 87.06930542 C227.02131088 87.06998633 224.60794281 87.06813827 222.19458008 87.06396484 C218.4988188 87.05862029 214.80317933 87.06391036 211.10742188 87.0703125 C208.76432265 87.06965161 206.4212235 87.06837021 204.078125 87.06640625 C202.97074478 87.06843048 201.86336456 87.07045471 200.72242737 87.07254028 C199.69133347 87.06938812 198.66023956 87.06623596 197.59790039 87.06298828 C196.69205704 87.06219269 195.78621368 87.06139709 194.85292053 87.06057739 C192.41796875 86.93359375 192.41796875 86.93359375 190.21922302 86.36300659 C188.33148985 85.70915053 188.33148985 85.70915053 186.41796875 86.93359375 C182.81919118 87.17480955 179.21143087 87.11879256 175.60546875 87.12109375 C174.60708984 87.13333984 173.60871094 87.14558594 172.58007812 87.15820312 C171.12891602 87.16110352 171.12891602 87.16110352 169.6484375 87.1640625 C168.76567139 87.16817139 167.88290527 87.17228027 166.97338867 87.17651367 C164.41796875 86.93359375 164.41796875 86.93359375 161.84106445 85.79418945 C161.04144287 85.51019287 160.24182129 85.22619629 159.41796875 84.93359375 C158.80933487 85.24737976 158.20070099 85.56116577 157.57362366 85.88446045 C154.95560523 87.15862094 153.39343138 87.06780489 150.50439453 86.85913086 C149.52882599 86.79765366 148.55325745 86.73617645 147.54812622 86.6728363 C146.49712738 86.6029097 145.44612854 86.53298309 144.36328125 86.4609375 C142.11611353 86.36248611 139.86869784 86.26956844 137.62109375 86.18164062 C134.088553 86.04048578 130.56965753 85.87308442 127.04394531 85.61010742 C113.87824718 84.27227209 113.87824718 84.27227209 101.98034668 88.77276611 C97.70545122 93.27074442 94.58218067 98.33085904 91.62811279 103.76126099 C89.44921296 107.67260983 87.70067339 110.44234517 83.48046875 112.05859375 C80.41796875 111.93359375 80.41796875 111.93359375 78.04296875 110.18359375 C77.13329925 109.12920411 76.26500468 108.0389291 75.41796875 106.93359375 C74.763125 106.08410156 74.10828125 105.23460937 73.43359375 104.359375 C64.41796875 92.30015397 64.41796875 92.30015397 64.41796875 86.93359375 C63.309375 86.95679688 62.20078125 86.98 61.05859375 87.00390625 C59.59505883 87.02266952 58.13151661 87.04086912 56.66796875 87.05859375 C55.57355469 87.08373047 55.57355469 87.08373047 54.45703125 87.109375 C48.85881091 87.16026791 48.85881091 87.16026791 46.21484375 85.80078125 C45.621875 85.51460938 45.02890625 85.2284375 44.41796875 84.93359375 C43.72832031 85.21847656 43.03867188 85.50335938 42.328125 85.796875 C37.89850915 87.52710079 33.56501749 87.18234045 28.85546875 87.12109375 C27.43717773 87.12012695 27.43717773 87.12012695 25.99023438 87.11914062 C18.95249148 87.0743776 18.95249148 87.0743776 16.24243164 86.3605957 C14.33442099 85.70900402 14.33442099 85.70900402 12.41796875 86.93359375 C10.78607737 87.02961933 9.15033785 87.06433942 7.515625 87.06640625 C6.05672852 87.06833984 6.05672852 87.06833984 4.56835938 87.0703125 C3.03985352 87.06451172 3.03985352 87.06451172 1.48046875 87.05859375 C0.46533203 87.06246094 -0.54980469 87.06632812 -1.59570312 87.0703125 C-2.56958984 87.06902344 -3.54347656 87.06773437 -4.546875 87.06640625 C-5.44011475 87.06527832 -6.33335449 87.06415039 -7.25366211 87.06298828 C-9.58203125 86.93359375 -9.58203125 86.93359375 -12.58203125 85.93359375 C-13.57203125 86.26359375 -14.56203125 86.59359375 -15.58203125 86.93359375 C-19.01424438 87.23821664 -22.45038689 87.25715371 -25.89453125 87.30859375 C-27.3012207 87.36466797 -27.3012207 87.36466797 -28.73632812 87.421875 C-36.51605718 87.52056078 -36.51605718 87.52056078 -39.9765625 84.77734375 C-42.54728648 81.97151608 -44.82156876 79.20860547 -46.95703125 76.05859375 C-47.64539062 75.07117188 -48.33375 74.08375 -49.04296875 73.06640625 C-50.9017845 69.28272546 -51.14988557 67.10406481 -50.58203125 62.93359375 C-48.95703125 59.92578125 -48.95703125 59.92578125 -46.58203125 56.80859375 C-46.14342773 56.22295654 -45.70482422 55.63731934 -45.25292969 55.03393555 C-43.7127228 52.98721943 -42.14771776 50.96087526 -40.58203125 48.93359375 C-39.33602844 47.29779683 -38.09130005 45.66102861 -36.84765625 44.0234375 C-34.82604317 41.36404918 -32.80190323 38.70678502 -30.76977539 36.05541992 C-25.53202805 29.21867098 -20.40336963 22.30851749 -15.36230469 15.32543945 C-13.79521389 13.17344519 -12.1970625 11.04979077 -10.58203125 8.93359375 C-10.01758301 8.16869629 -9.45313477 7.40379883 -8.87158203 6.61572266 C-6.03171877 3.01392558 -4.53011051 1.18069401 0 0 Z M-0.58203125 5.93359375 C-5.61558248 11.11831851 -9.9123625 16.90688126 -14.14453125 22.74609375 C-15.36974028 24.42191257 -16.59500225 26.09769269 -17.8203125 27.7734375 C-18.44115723 28.62534668 -19.06200195 29.47725586 -19.70166016 30.35498047 C-22.73449402 34.51400297 -25.78179891 38.66232159 -28.83203125 42.80859375 C-29.40912842 43.59459961 -29.98622559 44.38060547 -30.58081055 45.19042969 C-34.90866175 51.06786515 -39.35395663 56.84189186 -43.88671875 62.5625 C-45.77590406 64.71894449 -45.77590406 64.71894449 -45.58203125 66.93359375 C-42.35317116 67.0502725 -39.1248568 67.12099921 -35.89453125 67.18359375 C-34.98251953 67.21710938 -34.07050781 67.250625 -33.13085938 67.28515625 C-28.99803125 67.34527011 -26.34636991 67.37080377 -22.70703125 65.2890625 C-20.3182005 62.64114901 -18.28098633 59.94360786 -16.26953125 56.99609375 C-11.08840637 49.50416258 -5.54934193 42.30670617 0.05981445 35.13110352 C0.72456787 34.27057373 1.38932129 33.41004395 2.07421875 32.5234375 C2.67041016 31.75894287 3.26660156 30.99444824 3.88085938 30.20678711 C5.51171594 27.79495333 6.61718093 25.73607478 7.41796875 22.93359375 C7.07613634 20.76397893 7.07613634 20.76397893 6.08203125 18.7265625 C5.75976562 17.97568359 5.4375 17.22480469 5.10546875 16.45117188 C4.75484375 15.68224609 4.40421875 14.91332031 4.04296875 14.12109375 C3.70007812 13.33283203 3.3571875 12.54457031 3.00390625 11.73242188 C2.15745184 9.79263051 1.2897468 7.86213689 0.41796875 5.93359375 C0.08796875 5.93359375 -0.24203125 5.93359375 -0.58203125 5.93359375 Z M286.41796875 5.93359375 C277.47048879 17.60597213 268.59110249 29.32102386 259.90234375 41.1875 C257.43065008 44.56307478 254.93811813 47.92215113 252.43359375 51.2734375 C251.45737061 52.58417236 251.45737061 52.58417236 250.46142578 53.92138672 C249.20564402 55.60673598 247.94633526 57.28946435 246.68310547 58.96923828 C246.12381348 59.72188965 245.56452148 60.47454102 244.98828125 61.25 C244.49086426 61.91459229 243.99344727 62.57918457 243.48095703 63.26391602 C242.23895439 64.88488949 242.23895439 64.88488949 242.41796875 66.93359375 C245.64665621 67.07943439 248.8744924 67.16783481 252.10546875 67.24609375 C253.47348633 67.30893555 253.47348633 67.30893555 254.86914062 67.37304688 C260.33748422 67.4882144 260.33748422 67.4882144 265.0859375 65.03125 C265.85550781 64.00902344 266.62507813 62.98679688 267.41796875 61.93359375 C267.97734131 61.2279126 268.53671387 60.52223145 269.11303711 59.79516602 C271.12685199 57.24288968 273.08883726 54.65681925 275.04296875 52.05859375 C275.74284912 51.12837402 276.44272949 50.1981543 277.16381836 49.23974609 C278.57798225 47.35861839 279.99100034 45.47662871 281.40283203 43.59375 C283.22158248 41.19284076 285.07296383 38.82401386 286.9453125 36.46484375 C287.95713938 35.16284444 288.96886582 33.86076707 289.98046875 32.55859375 C290.4511377 31.98383301 290.92180664 31.40907227 291.40673828 30.81689453 C293.68860025 27.82872098 294.42365435 26.21787367 294.34765625 22.41796875 C293.43386792 18.99318224 292.36505203 15.82078699 290.98046875 12.55859375 C290.54863281 11.51960938 290.11679687 10.480625 289.671875 9.41015625 C288.66343334 6.8080074 288.66343334 6.8080074 286.41796875 5.93359375 Z M4.04296875 34.24609375 C2.7938471 36.11530443 1.59429239 38.01773463 0.41796875 39.93359375 C-1.31559138 42.31677149 -3.09034289 44.66663056 -4.86376953 47.02026367 C-7.81875698 50.95608285 -10.70040922 54.94392679 -13.58203125 58.93359375 C-14.08943848 59.62936523 -14.5968457 60.32513672 -15.11962891 61.04199219 C-17.4965889 63.74470435 -17.4965889 63.74470435 -18.58203125 66.93359375 C-6.44495904 68.28990657 -6.44495904 68.28990657 5.1015625 65.59765625 C7.23258577 63.19610218 8.75738582 60.68797381 10.41796875 57.93359375 C12.16408473 55.5155249 13.95461704 53.13370707 15.74633789 50.74926758 C18.16832797 47.51553696 20.53550157 44.24349099 22.90429688 40.97070312 C24.15806445 39.28337463 25.48980494 37.6543054 26.83984375 36.04296875 C28.71749404 33.97230097 28.71749404 33.97230097 28.41796875 30.93359375 C15.22562745 29.14736638 15.22562745 29.14736638 4.04296875 34.24609375 Z M31.41796875 35.93359375 C30.77738525 36.70993164 30.13680176 37.48626953 29.47680664 38.28613281 C28.8708667 39.08245117 28.26492676 39.87876953 27.640625 40.69921875 C26.96193359 41.58996094 26.28324219 42.48070312 25.58398438 43.3984375 C24.88982422 44.31753906 24.19566406 45.23664063 23.48046875 46.18359375 C22.79017578 47.08722656 22.09988281 47.99085937 21.38867188 48.921875 C13.83163682 57.30997199 13.83163682 57.30997199 9.41796875 66.93359375 C12.77093701 67.1679095 16.12178792 67.30861958 19.48046875 67.43359375 C20.42341797 67.500625 21.36636719 67.56765625 22.33789062 67.63671875 C27.71780871 67.79151848 27.71780871 67.79151848 32.41088867 65.45776367 C34.26753404 63.37883102 35.84241437 61.23241164 37.41796875 58.93359375 C38.61844824 57.34533785 39.82029824 55.75811701 41.0234375 54.171875 C42.22117253 52.53266293 43.41516594 50.89071062 44.60546875 49.24609375 C46.86841416 46.13605648 49.13846024 43.03150965 51.41796875 39.93359375 C52.51818359 38.433125 52.51818359 38.433125 53.640625 36.90234375 C56.0203668 34.26632206 57.95661514 34.16959513 61.41796875 33.93359375 C60.12664632 37.49244244 58.60543893 40.30759722 56.3359375 43.33203125 C55.43198242 44.54632813 55.43198242 44.54632813 54.50976562 45.78515625 C53.56713867 47.03425781 53.56713867 47.03425781 52.60546875 48.30859375 C51.36935444 49.96191278 50.13367015 51.61555341 48.8984375 53.26953125 C48.30853027 54.0594043 47.71862305 54.84927734 47.11083984 55.66308594 C46.27286865 56.7869873 46.27286865 56.7869873 45.41796875 57.93359375 C44.90186035 58.62356445 44.38575195 59.31353516 43.85400391 60.02441406 C41.28636787 63.15076961 41.28636787 63.15076961 40.41796875 66.93359375 C43.64665621 67.07943439 46.8744924 67.16783481 50.10546875 67.24609375 C51.47348633 67.30893555 51.47348633 67.30893555 52.86914062 67.37304688 C58.31317723 67.48761985 58.31317723 67.48761985 63.0546875 65.07421875 C63.83457031 64.0378125 64.61445312 63.00140625 65.41796875 61.93359375 C66.01988037 61.16942139 66.62179199 60.40524902 67.24194336 59.61791992 C69.37754731 56.89428415 71.46362326 54.13787313 73.54296875 51.37109375 C74.25839844 50.42556641 74.97382812 49.48003906 75.7109375 48.50585938 C77.61733295 45.98478502 79.51935133 43.46052868 81.41796875 40.93359375 C81.98757324 40.2156665 82.55717773 39.49773926 83.14404297 38.75805664 C84.60880119 37.0311596 84.60880119 37.0311596 84.41796875 34.93359375 C87.88296875 34.43859375 87.88296875 34.43859375 91.41796875 33.93359375 C90.87708002 37.66968766 90.01279027 39.90249559 87.64453125 42.83203125 C86.78529053 43.91145996 86.78529053 43.91145996 85.90869141 45.01269531 C85.29300293 45.7703418 84.67731445 46.52798828 84.04296875 47.30859375 C82.77088057 48.9143713 81.50006614 50.52115865 80.23046875 52.12890625 C79.59238281 52.93231445 78.95429688 53.73572266 78.296875 54.56347656 C75.51072756 58.0780191 72.7529076 61.60995828 70.04296875 65.18359375 C69.5732666 65.77833496 69.10356445 66.37307617 68.61962891 66.98583984 C66.64305122 69.61602987 65.46737324 71.62663801 64.94140625 74.89453125 C65.53063875 78.65209586 66.83132687 81.88516375 68.41796875 85.30859375 C68.70414063 85.94925781 68.9903125 86.58992188 69.28515625 87.25 C69.98620045 88.81566538 70.70071993 90.37528531 71.41796875 91.93359375 C74.77724644 90.81383452 75.22711631 90.19756773 77.2109375 87.41796875 C78.02026733 86.29926392 78.02026733 86.29926392 78.84594727 85.15795898 C79.42658936 84.34141846 80.00723145 83.52487793 80.60546875 82.68359375 C81.8668135 80.9388912 83.12989938 79.19544638 84.39453125 77.453125 C85.05356445 76.54385254 85.71259766 75.63458008 86.39160156 74.69775391 C89.68642044 70.20330338 93.08559233 65.79014118 96.48046875 61.37109375 C101.699889 54.54911418 106.8625566 47.69069648 111.91796875 40.74609375 C112.75533569 39.60515259 112.75533569 39.60515259 113.60961914 38.44116211 C114.11356201 37.74385986 114.61750488 37.04655762 115.13671875 36.328125 C115.57951172 35.71815674 116.02230469 35.10818848 116.47851562 34.47973633 C117.59105888 32.9502536 117.59105888 32.9502536 117.41796875 30.93359375 C106.94335312 30.81771888 96.46889007 30.72888797 85.99376392 30.67453289 C81.12964545 30.64844435 76.26596562 30.61305991 71.40209961 30.55639648 C66.70772176 30.50205012 62.01376569 30.47216762 57.31909752 30.45920753 C55.52849373 30.44997234 53.7379129 30.43193782 51.94748878 30.40494347 C49.43820027 30.36861705 46.93065194 30.36364972 44.42114258 30.3659668 C43.68170914 30.34799042 42.9422757 30.33001404 42.18043518 30.31149292 C36.84721447 30.36474087 34.72937308 31.85654777 31.41796875 35.93359375 Z M120.41796875 35.93359375 C119.90451904 36.56773193 119.39106934 37.20187012 118.86206055 37.85522461 C117.07450883 40.06400592 115.33668358 42.30543056 113.60546875 44.55859375 C112.68386963 45.75258789 112.68386963 45.75258789 111.74365234 46.97070312 C103.17890126 56.29746015 103.17890126 56.29746015 98.41796875 66.93359375 C101.64665621 67.07943439 104.8744924 67.16783481 108.10546875 67.24609375 C109.47348633 67.30893555 109.47348633 67.30893555 110.86914062 67.37304688 C116.37950279 67.49042382 116.37950279 67.49042382 121.13671875 64.953125 C121.88953125 63.95667969 122.64234375 62.96023437 123.41796875 61.93359375 C123.93141846 61.29945557 124.44486816 60.66531738 124.97387695 60.01196289 C126.76142867 57.80318158 128.49925392 55.56175694 130.23046875 53.30859375 C130.84486816 52.51259766 131.45926758 51.71660156 132.09228516 50.89648438 C140.65703624 41.56972735 140.65703624 41.56972735 145.41796875 30.93359375 C142.18928129 30.78775311 138.9614451 30.69935269 135.73046875 30.62109375 C134.81845703 30.57919922 133.90644531 30.53730469 132.96679688 30.49414062 C126.89981084 30.38383179 124.25119059 30.8598258 120.41796875 35.93359375 Z M147.41796875 35.93359375 C146.84844482 36.6085791 146.2789209 37.28356445 145.69213867 37.97900391 C145.18271729 38.63690918 144.6732959 39.29481445 144.1484375 39.97265625 C143.57303223 40.71322266 142.99762695 41.45378906 142.40478516 42.21679688 C141.81101074 42.98958984 141.21723633 43.76238281 140.60546875 44.55859375 C139.68386963 45.75258789 139.68386963 45.75258789 138.74365234 46.97070312 C130.17890126 56.29746015 130.17890126 56.29746015 125.41796875 66.93359375 C128.64665621 67.07943439 131.8744924 67.16783481 135.10546875 67.24609375 C136.47348633 67.30893555 136.47348633 67.30893555 137.86914062 67.37304688 C143.3756864 67.48996913 143.3756864 67.48996913 148.1328125 64.9609375 C148.88691406 63.96191406 149.64101562 62.96289062 150.41796875 61.93359375 C150.93673584 61.2888208 151.45550293 60.64404785 151.98999023 59.97973633 C153.79130023 57.73882243 155.54494366 55.46626425 157.29296875 53.18359375 C160.84765625 48.57421875 160.84765625 48.57421875 162.62182617 46.27709961 C163.85998839 44.66161516 165.08604004 43.03680089 166.30200195 41.40454102 C166.91132568 40.59557373 167.52064941 39.78660645 168.1484375 38.953125 C168.69395264 38.21940674 169.23946777 37.48568848 169.80151367 36.72973633 C172.01425129 34.27102757 174.19613024 33.48366374 177.41796875 32.93359375 C176.16874374 37.25647691 174.64623095 40.34096332 171.86328125 43.8671875 C171.16589844 44.76373047 170.46851563 45.66027344 169.75 46.58398438 C169.02167969 47.50373047 168.29335937 48.42347656 167.54296875 49.37109375 C163.07742514 55.04688755 158.78376535 60.52800702 155.41796875 66.93359375 C167.55504096 68.28990657 167.55504096 68.28990657 179.1015625 65.59765625 C181.23258577 63.19610218 182.75738582 60.68797381 184.41796875 57.93359375 C186.16408473 55.5155249 187.95461704 53.13370707 189.74633789 50.74926758 C192.16832797 47.51553696 194.53550157 44.24349099 196.90429688 40.97070312 C198.15806445 39.28337463 199.48980494 37.6543054 200.83984375 36.04296875 C202.71749404 33.97230097 202.71749404 33.97230097 202.41796875 30.93359375 C195.38894937 30.8067556 188.36022535 30.71922631 181.33032227 30.65893555 C178.93925956 30.6338006 176.54827361 30.59968742 174.1574707 30.55639648 C170.71937111 30.49570314 167.28228779 30.46737303 163.84375 30.4453125 C162.77586746 30.41950607 161.70798492 30.39369965 160.60774231 30.36711121 C154.41786502 30.36477511 151.29294187 30.63402612 147.41796875 35.93359375 Z M203.95703125 37.953125 C203.65539062 38.54480469 203.35375 39.13648438 203.04296875 39.74609375 C202.50671875 40.79796875 201.97046875 41.84984375 201.41796875 42.93359375 C204.79206434 43.13812526 208.16455867 43.26160824 211.54296875 43.37109375 C212.49429687 43.42974609 213.445625 43.48839844 214.42578125 43.54882812 C219.74004378 43.77307006 219.74004378 43.77307006 224.29589844 41.41455078 C225.86288541 39.57927007 225.86288541 39.57927007 227.09716797 37.64477539 C228.68128628 35.59244909 230.01021708 34.8544094 232.41796875 33.93359375 C233.40796875 33.93359375 234.39796875 33.93359375 235.41796875 33.93359375 C234.80314314 37.31133937 233.56101029 39.40977678 231.48046875 42.12109375 C230.95582031 42.81589844 230.43117188 43.51070312 229.890625 44.2265625 C228.41796875 45.93359375 228.41796875 45.93359375 226.41796875 46.93359375 C224.37173828 47.04038077 222.32235205 47.08908294 220.2734375 47.109375 C219.03916016 47.13322266 217.80488281 47.15707031 216.53320312 47.18164062 C213.92659592 47.22441439 211.31977493 47.25577032 208.71289062 47.27539062 C207.47474609 47.30310547 206.23660156 47.33082031 204.9609375 47.359375 C203.8268042 47.37395752 202.6926709 47.38854004 201.52416992 47.40356445 C197.09513878 48.15931598 194.80889741 50.32002507 191.93237305 53.65698242 C191.3432312 54.49579956 191.3432312 54.49579956 190.7421875 55.3515625 C190.08959961 56.27291992 190.08959961 56.27291992 189.42382812 57.21289062 C188.77124023 58.15745117 188.77124023 58.15745117 188.10546875 59.12109375 C187.65107422 59.76240234 187.19667969 60.40371094 186.72851562 61.06445312 C184.44356936 63.76562051 184.44356936 63.76562051 183.41796875 66.93359375 C190.58940744 67.06041956 197.76055673 67.14795616 204.93286133 67.20825195 C207.37242439 67.23338871 209.8119122 67.26750321 212.2512207 67.31079102 C215.75881521 67.37147604 219.26541365 67.39981275 222.7734375 67.421875 C224.40807198 67.46058464 224.40807198 67.46058464 226.07572937 67.50007629 C232.2038475 67.55994387 232.2038475 67.55994387 237.44140625 64.65551758 C238.09367187 63.75728271 238.7459375 62.85904785 239.41796875 61.93359375 C239.98749268 61.2586084 240.5570166 60.58362305 241.14379883 59.88818359 C241.65322021 59.23027832 242.1626416 58.57237305 242.6875 57.89453125 C243.26290527 57.15396484 243.83831055 56.41339844 244.43115234 55.65039062 C245.32181396 54.49120117 245.32181396 54.49120117 246.23046875 53.30859375 C247.15206787 52.11459961 247.15206787 52.11459961 248.09228516 50.89648438 C256.65703624 41.56972735 256.65703624 41.56972735 261.41796875 30.93359375 C254.4072609 30.80662781 247.39685043 30.71917263 240.38525391 30.65893555 C238.00102661 30.63381966 235.6168761 30.59972051 233.23291016 30.55639648 C229.80221596 30.49561928 226.37254131 30.46735382 222.94140625 30.4453125 C221.878685 30.41950607 220.81596375 30.39369965 219.72103882 30.36711121 C212.04978258 30.36421581 208.56164143 31.58792857 203.95703125 37.953125 Z " fill="#FFFFFF" transform="translate(50.58203125,54.06640625)"/>
<path d="M0 0 C0.66 0 1.32 0 2 0 C0.30037822 4.73466068 -2.13715471 8.96209912 -4.625 13.3125 C-6.790625 17.1178125 -6.790625 17.1178125 -9 21 C-2.4 21.66 4.2 22.32 11 23 C7.28404533 24.85797734 6.51855339 25.22901503 2.734375 25.02734375 C-6.56100868 24.5341584 -6.56100868 24.5341584 -14.74609375 28.12109375 C-16.76536278 30.98544922 -18.37657938 33.89583467 -20 37 C-21.46919077 39.08455864 -22.96856528 41.14823201 -24.5 43.1875 C-25.1703125 44.10917969 -25.840625 45.03085937 -26.53125 45.98046875 C-27.0159375 46.64691406 -27.500625 47.31335937 -28 48 C-29 45 -29 45 -28.21142578 43.13061523 C-27.7936084 42.44684814 -27.37579102 41.76308105 -26.9453125 41.05859375 C-26.49542969 40.31029297 -26.04554688 39.56199219 -25.58203125 38.79101562 C-25.10121094 38.01435547 -24.62039063 37.23769531 -24.125 36.4375 C-23.18987455 34.8946704 -22.25496834 33.35170789 -21.3203125 31.80859375 C-20.90023926 31.12595459 -20.48016602 30.44331543 -20.04736328 29.73999023 C-18.95917835 27.98345234 -18.95917835 27.98345234 -18 26 C-19.66289062 25.92652344 -19.66289062 25.92652344 -21.359375 25.8515625 C-22.82294065 25.77650785 -24.28648112 25.70096119 -25.75 25.625 C-26.47960937 25.5940625 -27.20921875 25.563125 -27.9609375 25.53125 C-31.82991759 25.32021472 -34.62577514 24.87092234 -38 23 C-37.34515625 22.99701904 -36.6903125 22.99403809 -36.015625 22.9909668 C-23.31610467 23.2451016 -23.31610467 23.2451016 -11.9375 18.76953125 C-9.95426612 15.93462637 -8.47001168 13.12879536 -7 10 C-5.7439755 8.08036741 -4.45358024 6.18265009 -3.125 4.3125 C-2.57070313 3.48363281 -2.01640625 2.65476563 -1.4453125 1.80078125 C-0.72988281 0.90939453 -0.72988281 0.90939453 0 0 Z " fill="#FFFFFF" transform="translate(328,1)"/>
<path d="M0 0 C0.66 0.33 1.32 0.66 2 1 C-0.97 6.28 -3.94 11.56 -7 17 C-1.72 17.33 3.56 17.66 9 18 C9 18.66 9 19.32 9 20 C7.46279297 20.07347656 7.46279297 20.07347656 5.89453125 20.1484375 C4.5338294 20.22351071 3.17315356 20.29905655 1.8125 20.375 C1.13896484 20.4059375 0.46542969 20.436875 -0.22851562 20.46875 C-5.8952773 20.79832367 -5.8952773 20.79832367 -11 23 C-12.96811337 25.39846321 -14.57410025 27.97912204 -16.1875 30.625 C-17.74048586 33.13173417 -19.3280982 35.56760482 -21 38 C-21.66 38 -22.32 38 -23 38 C-21.42986223 32.03347646 -18.24970218 27.17090975 -15 22 C-17.9615696 20.5192152 -20.83506295 20.64685963 -24.125 20.4375 C-25.40632813 20.35371094 -26.68765625 20.26992188 -28.0078125 20.18359375 C-29.48894531 20.09271484 -29.48894531 20.09271484 -31 20 C-31 19.34 -31 18.68 -31 18 C-29.74703125 17.97421875 -28.4940625 17.9484375 -27.203125 17.921875 C-25.55204877 17.86558831 -23.90100845 17.8082411 -22.25 17.75 C-21.0125 17.72873047 -21.0125 17.72873047 -19.75 17.70703125 C-14.92074213 17.54157534 -14.92074213 17.54157534 -10.71875 15.375 C-9.86796875 14.199375 -9.86796875 14.199375 -9 13 C-8.62456055 12.48985352 -8.24912109 11.97970703 -7.86230469 11.45410156 C-6.62298689 9.74124747 -5.43246068 8.00250688 -4.25 6.25 C-3.83878906 5.64800781 -3.42757813 5.04601563 -3.00390625 4.42578125 C-1.99876568 2.95313343 -0.99884522 1.47692498 0 0 Z " fill="#FFFFFF" transform="translate(321,36)"/>
<path d="M0 0 C0.66 0 1.32 0 2 0 C0.43358249 4.30764815 -1.68336156 8.06171464 -4 12 C1.445 12.495 1.445 12.495 7 13 C3.13209997 14.93395001 1.8499541 15.23289353 -2.25 15.125 C-3.14203125 15.10695313 -4.0340625 15.08890625 -4.953125 15.0703125 C-5.96632813 15.03550781 -5.96632813 15.03550781 -7 15 C-7.20625 15.66 -7.4125 16.32 -7.625 17 C-9.51152871 21.11606263 -12.20567979 24.4587703 -15 28 C-16 25 -16 25 -14.78515625 22.51953125 C-14.21667969 21.62621094 -13.64820313 20.73289062 -13.0625 19.8125 C-12.49660156 18.91144531 -11.93070312 18.01039062 -11.34765625 17.08203125 C-10.90292969 16.39496094 -10.45820313 15.70789062 -10 15 C-11.0725 15.04125 -12.145 15.0825 -13.25 15.125 C-16.77723487 15.0074255 -18.061073 14.65152093 -21 13 C-20.01257813 12.97421875 -19.02515625 12.9484375 -18.0078125 12.921875 C-16.72648437 12.86515625 -15.44515625 12.8084375 -14.125 12.75 C-12.84882813 12.70359375 -11.57265625 12.6571875 -10.2578125 12.609375 C-6.96363424 12.38011909 -6.96363424 12.38011909 -5.7109375 10.21875 C-5.47632813 9.4865625 -5.24171875 8.754375 -5 8 C-4.18679742 6.57168265 -3.35325892 5.15475553 -2.5 3.75 C-2.0771875 3.04359375 -1.654375 2.3371875 -1.21875 1.609375 C-0.61546875 0.81273438 -0.61546875 0.81273438 0 0 Z " fill="#FFFFFF" transform="translate(352,22)"/>
<path d="M0 0 C-0.77935672 5.78950706 -3.66227946 9.22653579 -8 13 C-11.4375 14 -11.4375 14 -14 14 C-14.36134457 10.71293005 -14.23608202 9.34039732 -12.3203125 6.578125 C-11.59585937 5.80984375 -10.87140625 5.0415625 -10.125 4.25 C-9.04605469 3.08210938 -9.04605469 3.08210938 -7.9453125 1.890625 C-4.97722612 -0.9940212 -3.85612324 -1.15683697 0 0 Z " fill="#FFFFFF" transform="translate(274,105)"/>
</svg>
